<svg xmlns="http://www.w3.org/2000/svg" version="1.1" xmlns:xlink="http://www.w3.org/1999/xlink" xmlns:svgjs="http://svgjs.dev/svgjs" width="2000" height="1116" viewBox="0 0 2000 1116"><g transform="matrix(1,0,0,1,-1.2121212121212466,-1.0547840617498423)"><svg viewBox="0 0 396 221" data-background-color="#ffffff" preserveAspectRatio="xMidYMid meet" height="1116" width="2000" xmlns="http://www.w3.org/2000/svg" xmlns:xlink="http://www.w3.org/1999/xlink"><defs></defs><g id="tight-bounds" transform="matrix(1,0,0,1,0.2400000000000091,0.20887748893073876)"><svg viewBox="0 0 395.52 220.58224502213852" height="220.58224502213852" width="395.52"><g><svg viewBox="0 0 759.4089381610686 423.5237875946776" height="220.58224502213852" width="395.52"><g transform="matrix(1,0,0,1,363.8889381610687,135.14760515864893)"><svg viewBox="0 0 395.5199999999999 153.2285772773797" height="153.2285772773797" width="395.5199999999999"><g><svg viewBox="0 0 395.5199999999999 153.2285772773797" height="153.2285772773797" width="395.5199999999999"><g><svg viewBox="0 0 395.5199999999999 153.2285772773797" height="153.2285772773797" width="395.5199999999999"><g transform="matrix(1,0,0,1,0,0)"><svg width="395.5199999999999" viewBox="1.8 -37.3 97.7 37.849999999999994" height="153.2285772773797" data-palette-color="#7fc37e"><path d="M18.55-24.65L14.4-11.8 22.2-11.8 18.55-24.65ZM36.1-2.3Q35.5-1 34.08-0.23 32.65 0.55 30.7 0.55 28.75 0.55 27.5-0.43 26.25-1.4 25.25-3.9L25.25-3.9 24.05-7 12.7-7 11.45-3.5Q10.05 0.55 6.7 0.55L6.7 0.55Q5.1 0.55 3.68-0.18 2.25-0.9 1.8-2L1.8-2Q2.65-2.35 3.23-3.18 3.8-4 4.5-5.75L4.5-5.75 14.75-32.2Q13.85-34.15 12.8-34.9L12.8-34.9Q14.35-37.3 17.6-37.3L17.6-37.3Q20.1-37.3 21.25-35.95 22.4-34.6 23.7-31.1L23.7-31.1 32.65-6.9Q33.95-3.35 36.1-2.3L36.1-2.3ZM51.75-32.15L51.75-32.15 48.9-32.15 48.9-17.7 51.75-17.7Q55.2-17.7 57.07-19.68 58.95-21.65 58.95-24.98 58.95-28.3 57.07-30.23 55.2-32.15 51.75-32.15ZM43.9-36.8L43.9-36.8 53.25-36.8Q53.4-36.8 53.55-36.8L53.55-36.8Q61.8-36.8 65.8-31.7L65.8-31.7Q68-28.9 68-24.95 68-21 65.8-18.25L65.8-18.25Q61.75-13.1 53.25-13.1L53.25-13.1 48.85-13.1 48.85-5.15Q48.85-2.45 50.5-1.6L50.5-1.6Q48.6 0.55 45.9 0.55L45.9 0.55Q41 0.55 41-5.4L41-5.4 41-31.15Q41-33.7 39.3-34.6L39.3-34.6Q41.15-36.8 43.9-36.8ZM83.25-32.15L83.25-32.15 80.39-32.15 80.39-17.7 83.25-17.7Q86.69-17.7 88.57-19.68 90.44-21.65 90.44-24.98 90.44-28.3 88.57-30.23 86.69-32.15 83.25-32.15ZM75.39-36.8L75.39-36.8 84.75-36.8Q84.89-36.8 85.05-36.8L85.05-36.8Q93.3-36.8 97.3-31.7L97.3-31.7Q99.5-28.9 99.5-24.95 99.5-21 97.3-18.25L97.3-18.25Q93.25-13.1 84.75-13.1L84.75-13.1 80.34-13.1 80.34-5.15Q80.34-2.45 82-1.6L82-1.6Q80.09 0.55 77.39 0.55L77.39 0.55Q72.5 0.55 72.5-5.4L72.5-5.4 72.5-31.15Q72.5-33.7 70.8-34.6L70.8-34.6Q72.64-36.8 75.39-36.8Z" opacity="1" transform="matrix(1,0,0,1,0,0)" fill="#7fc37e" class="undefined-text-0" data-fill-palette-color="primary" id="text-0"></path></svg></g></svg></g></svg></g></svg></g><g><svg viewBox="0 0 327.71534855173405 423.5237875946776" height="423.5237875946776" width="327.71534855173405"><g><svg xmlns="http://www.w3.org/2000/svg" xmlns:xlink="http://www.w3.org/1999/xlink" version="1.1" x="0" y="0" viewBox="12.983 1 75.68599999999999 97.813" enable-background="new 0 0 100 100" xml:space="preserve" height="423.5237875946776" width="327.71534855173405" class="icon-icon-0" data-fill-palette-color="accent" id="icon-0"><g fill="#7fc37e" data-fill-palette-color="accent"><polygon fill-rule="evenodd" clip-rule="evenodd" points="12.983,10.59 30.001,98.813 24.129,39.764 53.15,37.872 53.096,27.989    64.549,1 53.622,18.977  " fill="#7fc37e" data-fill-palette-color="accent"></polygon><polygon fill-rule="evenodd" clip-rule="evenodd" points="59.389,54.548 64.549,1.007 55.809,40.723 36.197,41.768 37.767,62.23    30.001,98.813 42.058,58.914  " fill="#7fc37e" data-fill-palette-color="accent"></polygon><polygon fill-rule="evenodd" clip-rule="evenodd" points="62.8,67.182 63.349,56.729 47.37,60.484 47.338,72.281 30.001,98.813    51.681,71.197  " fill="#7fc37e" data-fill-palette-color="accent"></polygon><polygon fill-rule="evenodd" clip-rule="evenodd" points="65.711,62.394 80.552,57.663 82.061,45.131 66.162,47.226  " fill="#7fc37e" data-fill-palette-color="accent"></polygon><polygon fill-rule="evenodd" clip-rule="evenodd" points="72.07,44.502 83.058,43.085 84.639,32.807 76.56,32.434 64.549,1    72.979,31.967  " fill="#7fc37e" data-fill-palette-color="accent"></polygon><polygon fill-rule="evenodd" clip-rule="evenodd" points="87.413,31.294 88.669,21.788 79.125,19.094 64.549,1 79.032,23.437    78.61,30.437  " fill="#7fc37e" data-fill-palette-color="accent"></polygon></g></svg></g></svg></g></svg></g></svg><rect width="395.52" height="220.58224502213852" fill="none" stroke="none" visibility="hidden"></rect></g></svg></g></svg>